<?xml version="1.0" encoding="UTF-8"?><svg id="a" xmlns="http://www.w3.org/2000/svg" viewBox="0 0 710 710"><defs><style>.b{fill:#023047;}</style></defs><path class="b" d="M635.18,241.92c-19.05-70-38.1-140.01-57.15-210.01-5.12-18.84-22.23-31.91-41.75-31.91H173.71c-19.51,0-36.61,13.06-41.75,31.89-19.1,70.03-38.19,140.06-57.29,210.09C31.08,258.02,0,299.9,0,349.05v210.95H65.48v117.38c0,18.02,14.6,32.62,32.62,32.62h94.76c18.02,0,32.62-14.6,32.62-32.62v-117.38h244v117.38c0,18.02,14.6,32.62,32.62,32.62h94.76c18.02,0,32.62-14.6,32.62-32.62v-117.38h80.52v-210.95c0-49.21-31.16-91.13-74.82-107.13ZM145.48,489c-34.24,0-62-27.76-62-62s27.76-62,62-62,62,27.76,62,62-27.76,62-62,62Zm36.83-202.07l14.97-51.93c10.72-37.21,21.45-74.43,32.17-111.64,5.34-18.53,22.3-31.29,41.58-31.29h167.82c19.29,0,36.25,12.77,41.59,31.31,10.7,37.2,21.4,74.42,32.1,111.62,4.98,17.31,9.96,34.62,14.94,51.93H182.31Zm367.17,202.07c-34.24,0-62-27.76-62-62s27.76-62,62-62,62,27.76,62,62-27.76,62-62,62Z"/></svg>