<?xml version="1.0" encoding="UTF-8"?><svg id="a" xmlns="http://www.w3.org/2000/svg" viewBox="0 0 632 631.5"><defs><style>.b{fill:#023047;}</style></defs><path class="b" d="M631.5,468c-.06-38.32-6.95-75.04-19.53-109-12.9-34.9-31.81-66.89-55.48-94.72-37.56,96.69-131.52,165.22-241.49,165.22s-202.88-67.77-240.86-163.61c-23.02,27.45-41.46,58.88-54.12,93.11C7.45,392.96,.56,429.68,.5,468c-.17,53.83-.33,107.67-.5,161.5,210.67,.67,421.33,1.33,632,2-.17-54.5-.33-109-.5-163.5Z"/><path class="b" d="M316,341c83.66,0,153.26-60.27,167.74-139.76,1.81-9.97,2.76-20.24,2.76-30.74C486.5,76.34,410.16,0,316,0S145.5,76.34,145.5,170.5c0,10.5,.95,20.77,2.76,30.74,14.48,79.49,84.08,139.76,167.74,139.76Z"/></svg>