<?xml version="1.0" encoding="UTF-8"?><svg id="a" xmlns="http://www.w3.org/2000/svg" viewBox="0 0 709.14 709.67"><defs><style>.b{fill:#ccc;}</style></defs><path class="b" d="M687.91,580.24l-171.28-171.28c21.92-39.53,34.41-85.03,34.41-133.44C551.04,123.35,427.68,0,275.52,0S0,123.35,0,275.52s123.35,275.52,275.52,275.52c48.13,0,93.38-12.34,132.75-34.04l171.44,171.44c28.31,28.31,74.2,28.31,102.5,0l5.7-5.7c28.31-28.3,28.31-74.2,0-102.5Zm-376.61-160.21c-11.46,2.83-23.45,4.33-35.78,4.33-82.21,0-148.85-66.64-148.85-148.84S193.31,126.67,275.52,126.67s148.84,66.64,148.84,148.85c0,12.64-1.57,24.9-4.55,36.62-13.41,53.06-55.33,94.77-108.51,107.89Z"/></svg>